<?xml version="1.0" encoding="iso-8859-1"?>
<!-- Generator: Adobe Illustrator 19.0.0, SVG Export Plug-In . SVG Version: 6.00 Build 0)  -->
<svg version="1.1" id="Layer_1" xmlns="http://www.w3.org/2000/svg" xmlns:xlink="http://www.w3.org/1999/xlink" x="0px" y="0px"
	 viewBox="0 0 512 512" style="enable-background:new 0 0 512 512;" xml:space="preserve">
<g>
	<rect x="74.327" y="60.712" style="fill:#B7364A;" width="40.283" height="49.251"/>
	<rect x="235.853" y="60.712" style="fill:#B7364A;" width="40.284" height="49.251"/>
	<rect x="397.39" y="60.712" style="fill:#B7364A;" width="40.283" height="49.251"/>
</g>
<g>
	<path style="fill:#AF6518;" d="M156.926,229.162v-9.468c0.001-18.084-8.657-34.126-22.047-44.249
		c-12.333-9.657-20.269-24.675-20.269-41.553v-23.927H74.328v23.927c0,16.878-7.935,31.897-20.269,41.553
		c-13.39,10.124-22.048,26.166-22.047,44.249v9.468L156.926,229.162L156.926,229.162z"/>
	<path style="fill:#AF6518;" d="M318.456,229.162v-9.468c0.001-18.084-8.657-34.126-22.047-44.249
		c-12.333-9.657-20.269-24.675-20.269-41.553v-23.927h-40.283v23.927c0,16.878-7.935,31.897-20.269,41.553
		c-13.389,10.124-22.048,26.166-22.046,44.249v9.468L318.456,229.162L318.456,229.162z"/>
	<path style="fill:#AF6518;" d="M479.988,229.162v-9.468c0.001-18.084-8.657-34.126-22.047-44.249
		c-12.333-9.657-20.269-24.675-20.269-41.553v-23.927H397.39v23.927c0,16.878-7.935,31.897-20.269,41.553
		c-13.39,10.124-22.048,26.166-22.047,44.249v9.468L479.988,229.162L479.988,229.162z"/>
</g>
<polyline style="fill:#386499;" points="73.214,451.287 7.602,451.287 7.602,229.162 504.398,229.162 504.398,451.287 
	93.487,451.287 "/>
<rect x="175.93" y="269.707" style="fill:#AF6518;" width="160.148" height="33.449"/>
<g>
	<path style="fill:#491E17;" d="M487.59,221.56v-1.866c0.001-19.907-9.113-38.227-25.008-50.272
		c-11.001-8.636-17.307-21.582-17.307-35.532v-16.325V53.11h-55.487v64.454v16.325c0,13.949-6.307,26.896-17.307,35.532
		c-15.895,12.046-25.009,30.365-25.008,50.272v1.866h-21.413v-1.866c0.001-19.907-9.113-38.227-25.008-50.272
		c-11-8.636-17.306-21.581-17.306-35.532v-16.325V53.11h-55.488v64.454v16.325c0,13.949-6.307,26.896-17.307,35.532
		c-15.895,12.046-25.009,30.365-25.008,50.272v1.866h-21.413v-1.866c0.001-19.907-9.113-38.227-25.008-50.272
		c-11.001-8.636-17.307-21.582-17.307-35.532v-16.325l0.001-64.454H66.726v64.454v16.325c0,13.949-6.307,26.896-17.307,35.532
		c-15.895,12.046-25.009,30.365-25.008,50.272v1.866H0v237.33h73.214v-15.204h-58.01V236.763h9.206h140.117h21.413h140.117h21.413
		H487.59h9.206v206.922h-15.205v-91.799h-15.204v91.799h-15.206v-61.389h-15.204v61.389H93.487v15.204H512V221.56H487.59z
		 M107.009,68.314l-0.001,34.047H81.93V68.314C81.93,68.314,107.009,68.314,107.009,68.314z M39.614,221.56v-1.866
		c-0.001-15.123,6.935-29.04,19.029-38.186l0.101-0.078c14.735-11.537,23.185-28.864,23.185-47.539v-16.325h25.078v16.325
		c0,18.675,8.45,36.003,23.185,47.539l0.101,0.078c12.094,9.146,19.03,23.063,19.029,38.186v1.866H39.614z M268.54,68.314v34.047
		H243.46V68.314C243.46,68.314,268.54,68.314,268.54,68.314z M201.145,221.56v-1.867c-0.001-15.122,6.935-29.039,19.029-38.185
		l0.101-0.078c14.735-11.537,23.184-28.864,23.184-47.539v-16.325h25.079v16.325c0,18.675,8.45,36.003,23.184,47.539l0.101,0.078
		c12.094,9.146,19.03,23.063,19.029,38.186v1.866H201.145z M430.07,68.314v34.047h-25.078V68.314
		C404.992,68.314,430.07,68.314,430.07,68.314z M362.676,221.56v-1.866c-0.001-15.123,6.935-29.04,19.029-38.186l0.101-0.078
		c14.735-11.537,23.185-28.864,23.185-47.539v-16.325h25.078v16.325c0,18.675,8.45,36.003,23.185,47.539l0.101,0.078
		c12.094,9.146,19.03,23.063,19.029,38.186v1.866H362.676z"/>
	<path style="fill:#491E17;" d="M168.324,262.107v48.653h175.352v-48.653H168.324z M328.471,295.556H183.527v-18.245h144.944
		V295.556z"/>
</g>
<g>
</g>
<g>
</g>
<g>
</g>
<g>
</g>
<g>
</g>
<g>
</g>
<g>
</g>
<g>
</g>
<g>
</g>
<g>
</g>
<g>
</g>
<g>
</g>
<g>
</g>
<g>
</g>
<g>
</g>
</svg>
