<?xml version="1.0" encoding="iso-8859-1"?>
<!-- Generator: Adobe Illustrator 18.0.0, SVG Export Plug-In . SVG Version: 6.00 Build 0)  -->
<!DOCTYPE svg PUBLIC "-//W3C//DTD SVG 1.1//EN" "http://www.w3.org/Graphics/SVG/1.1/DTD/svg11.dtd">
<svg version="1.1" id="Capa_1" xmlns="http://www.w3.org/2000/svg" xmlns:xlink="http://www.w3.org/1999/xlink" x="0px" y="0px"
	 viewBox="0 0 476.564 476.564" style="enable-background:new 0 0 476.564 476.564;" xml:space="preserve">
<g>
	<path d="M401.187,2.188C400.437,0.838,399.015,0,397.47,0H79.094c-1.544,0-2.967,0.838-3.716,2.188
		C39.379,67.067,19.553,150.915,19.553,238.282c0,87.367,19.825,171.213,55.824,236.094c0.749,1.35,2.172,2.188,3.716,2.188h318.377
		c1.544,0,2.967-0.838,3.716-2.188c35.998-64.88,55.823-148.727,55.823-236.094C457.01,150.914,437.185,67.067,401.187,2.188z
		 M394.958,8.5c8.986,16.473,16.91,34.183,23.732,52.853H356.37C350.2,43.923,342.749,27.324,332.62,8.5H394.958z M244.407,8.5
		h78.538c10.475,19.075,18.13,35.646,24.396,52.853H244.407V8.5z M235.907,8.5v52.853H129.228
		C135.52,44.101,143.187,27.5,153.62,8.5H235.907z M81.606,8.5h62.338c-10.09,18.757-17.556,35.385-23.749,52.853H57.874
		C64.696,42.683,72.62,24.973,81.606,8.5z M54.87,69.853h365.278c0.513,0,0.998-0.105,1.453-0.271
		c6.958,20.293,12.628,41.652,16.939,63.768H38.024C42.315,111.333,47.955,90.065,54.87,69.853z M358.771,141.849h9.37
		c5.541,31.203,8.358,63.627,8.358,96.434c0,33.735-3.013,66.215-9.19,99.201H241.407V141.849h108.731
		c5.541,31.203,8.358,63.627,8.358,96.434c0,2.348,1.903,4.25,4.25,4.25c2.347,0,4.25-1.902,4.25-4.25
		C366.996,205.499,364.225,173.083,358.771,141.849z M124.612,337.483h-15.357c-6.176-32.969-9.19-65.453-9.19-99.201
		c0-32.801,2.815-65.23,8.356-96.434h124.485v195.635h-99.648c-6.176-32.971-9.19-65.455-9.19-99.201c0-2.348-1.903-4.25-4.25-4.25
		c-2.347,0-4.25,1.902-4.25,4.25C115.569,272.026,118.535,304.528,124.612,337.483z M28.053,238.282
		c0-33.023,2.883-65.514,8.422-96.623c0.38,0.111,0.775,0.189,1.192,0.189h62.125c-5.455,31.236-8.227,63.656-8.227,96.434
		c0,33.746,2.966,66.248,9.043,99.201H36.937C31.094,305.593,28.053,272.218,28.053,238.282z M81.606,468.064
		c-8.541-15.658-16.129-32.43-22.718-50.084h62.945c7.272,19.857,15.574,36.331,23.075,50.084H81.606z M235.907,468.064h-81.299
		c-7.54-13.605-16.148-30.073-23.708-50.084h105.008V468.064z M244.407,468.064v-50.084h101.252
		c-6.04,15.987-13.29,31.285-23.703,50.084H244.407z M394.958,468.064h-63.306c10.049-18.469,17.099-33.785,23.077-50.084h62.946
		C411.087,435.634,403.499,452.405,394.958,468.064z M420.743,409.479H55.965c-0.048,0-0.092,0.013-0.14,0.014
		c-7.061-20.195-12.842-41.469-17.264-63.51h399.44C433.581,368.02,427.801,389.288,420.743,409.479z M438.446,337.483h-62.492
		c6.079-32.971,9.046-65.469,9.045-99.201c0-32.783-2.771-65.199-8.225-96.434h63.349c5.516,31.053,8.388,63.477,8.388,96.434
		c0,33.999-3.051,67.436-8.915,99.378C439.228,337.556,438.847,337.483,438.446,337.483z"/>
	<path d="M174.282,79.352c-8.96,0-16.249,7.29-16.249,16.249c0,8.961,7.289,16.25,16.249,16.25c8.96,0,16.249-7.289,16.249-16.25
		C190.531,86.642,183.242,79.352,174.282,79.352z M174.282,103.351c-4.273,0-7.749-3.477-7.749-7.75
		c0-4.272,3.477-7.749,7.749-7.749c4.273,0,7.749,3.477,7.749,7.749C182.031,99.874,178.555,103.351,174.282,103.351z"/>
	<path d="M302.282,79.352c-8.96,0-16.249,7.29-16.249,16.249c0,8.961,7.289,16.25,16.249,16.25c8.96,0,16.25-7.289,16.25-16.25
		C318.531,86.642,311.242,79.352,302.282,79.352z M302.282,103.351c-4.273,0-7.749-3.477-7.749-7.75
		c0-4.272,3.477-7.749,7.749-7.749c4.273,0,7.75,3.477,7.75,7.749C310.031,99.874,306.555,103.351,302.282,103.351z"/>
	<path d="M174.282,394.517c8.96,0,16.249-7.289,16.249-16.249c0-8.96-7.29-16.249-16.249-16.249c-8.96,0-16.249,7.289-16.249,16.249
		C158.032,387.228,165.322,394.517,174.282,394.517z M174.282,370.519c4.273,0,7.749,3.477,7.749,7.749
		c0,4.272-3.477,7.749-7.749,7.749c-4.273,0-7.749-3.477-7.749-7.749C166.532,373.995,170.009,370.519,174.282,370.519z"/>
	<path d="M302.282,394.517c8.96,0,16.25-7.289,16.25-16.249c0-8.96-7.29-16.249-16.25-16.249c-8.96,0-16.249,7.289-16.249,16.249
		C286.032,387.228,293.322,394.517,302.282,394.517z M302.282,370.519c4.273,0,7.75,3.477,7.75,7.749
		c0,4.272-3.477,7.749-7.75,7.749c-4.273,0-7.749-3.477-7.749-7.749C294.532,373.995,298.009,370.519,302.282,370.519z"/>
</g>
<g>
</g>
<g>
</g>
<g>
</g>
<g>
</g>
<g>
</g>
<g>
</g>
<g>
</g>
<g>
</g>
<g>
</g>
<g>
</g>
<g>
</g>
<g>
</g>
<g>
</g>
<g>
</g>
<g>
</g>
</svg>
