<?xml version="1.0" encoding="iso-8859-1"?>
<!-- Generator: Adobe Illustrator 19.0.0, SVG Export Plug-In . SVG Version: 6.00 Build 0)  -->
<svg version="1.1" id="Layer_1" xmlns="http://www.w3.org/2000/svg" xmlns:xlink="http://www.w3.org/1999/xlink" x="0px" y="0px"
	 viewBox="0 0 512 512" style="enable-background:new 0 0 512 512;" xml:space="preserve">
<g>
	<g>
		<g>
			<path d="M255.999,424.232h-16.148V59.892C239.851,26.867,212.982,0,179.958,0c-33.025,0-59.893,26.867-59.893,59.892v364.341
				h-16.149v15.728h152.083V424.232z M224.123,424.232h-88.33V59.892c0-24.352,19.812-44.164,44.165-44.164
				c24.353,0,44.165,19.812,44.165,44.164V424.232z"/>
			<path d="M263.865,135.793h48.166h0.1c2.509,3.346,5.531,6.283,8.948,8.7l7.927,71.344h30.086l7.927-71.344
				c10.22-7.229,16.912-19.129,16.912-32.572c0-19.3-13.781-35.437-32.018-39.099V55.89h-15.728v16.932
				c-12.91,2.592-23.58,11.438-28.716,23.231h-43.604v-8.145h-15.728v8.145v39.74v8.146h15.728V135.793z M345.013,200.11h-1.931
				l-5.425-48.826c2.082,0.337,4.215,0.519,6.391,0.519c2.176,0,4.308-0.181,6.391-0.519L345.013,200.11z M344.048,87.767
				c13.318,0,24.154,10.835,24.154,24.154c0,13.318-10.834,24.154-24.154,24.154c-13.318,0-24.154-10.835-24.154-24.154
				C319.894,98.602,330.729,87.767,344.048,87.767z M263.863,111.78h40.303v8.284h-40.303V111.78z"/>
			<rect x="336.041" y="32.018" width="16.009" height="15.728"/>
			<path d="M440.101,16.009c-10.409,0-19.277,6.699-22.536,16.01h-57.508v15.728h57.508c3.259,9.31,12.127,16.008,22.536,16.008
				c13.163,0,23.873-10.71,23.873-23.872C463.973,26.718,453.264,16.009,440.101,16.009z M440.101,48.027
				c-4.491,0-8.145-3.653-8.145-8.144c0-4.491,3.654-8.146,8.145-8.146s8.145,3.654,8.145,8.146
				C448.246,44.375,444.592,48.027,440.101,48.027z"/>
			<rect x="152.078" y="71.897" width="15.728" height="168.089"/>
			<rect x="176.099" y="151.941" width="15.728" height="16.008"/>
			<rect x="192.11" y="103.919" width="15.728" height="40.022"/>
			<rect x="192.11" y="255.997" width="15.728" height="16.01"/>
			<rect x="336.188" y="223.985" width="15.728" height="16.009"/>
			<path d="M400.273,256.139H287.824l8.004,192.106H48.027V512h383.929v-63.754h-39.688L400.273,256.139z M383.876,271.867
				l-1.012,24.294h-77.632l-1.012-24.294H383.876z M306.567,328.179l-0.678-16.29h76.32l-0.678,16.29H306.567z M380.874,343.907
				l-4.347,104.339h-64.958l-4.347-104.339H380.874z M416.228,463.973v32.299H63.754v-32.299H416.228z"/>
			<rect x="168.089" y="296.019" width="15.728" height="40.022"/>
			<rect x="152.078" y="336.041" width="15.728" height="16.009"/>
			<rect x="184.1" y="368.063" width="15.728" height="40.022"/>
			<rect x="336.041" y="104.055" width="16.009" height="15.728"/>
		</g>
	</g>
</g>
<g>
</g>
<g>
</g>
<g>
</g>
<g>
</g>
<g>
</g>
<g>
</g>
<g>
</g>
<g>
</g>
<g>
</g>
<g>
</g>
<g>
</g>
<g>
</g>
<g>
</g>
<g>
</g>
<g>
</g>
</svg>
