<?xml version="1.0" encoding="iso-8859-1"?>
<!-- Generator: Adobe Illustrator 19.0.0, SVG Export Plug-In . SVG Version: 6.00 Build 0)  -->
<svg version="1.1" id="Layer_1" xmlns="http://www.w3.org/2000/svg" xmlns:xlink="http://www.w3.org/1999/xlink" x="0px" y="0px"
	 viewBox="0 0 512.001 512.001" style="enable-background:new 0 0 512.001 512.001;" xml:space="preserve">
<g>
	<g>
		<g>
			<path d="M256,80.34c28.188,0,56.629-7.217,56.629-23.339c0-16.124-28.442-23.34-56.629-23.34s-56.629,7.217-56.629,23.34
				C199.371,73.123,227.812,80.34,256,80.34z M256,49.268c22.248,0,35.957,4.803,40.102,7.732
				c-4.144,2.928-17.853,7.731-40.102,7.731S220.043,59.928,215.898,57C220.042,54.072,233.752,49.268,256,49.268z"/>
			<path d="M418.418,56.259c0-16.881-17.552-31.304-50.756-41.71C337.725,5.167,298.068,0,256,0s-81.725,5.167-111.662,14.549
				c-33.205,10.406-50.756,24.829-50.756,41.71c0,0.248,0.017,0.494,0.024,0.741h-0.024v161.641
				c0,78.53,56.024,144.217,130.201,159.204v54.204c-18.531,3.645-32.551,20.013-32.551,39.597
				c0,22.252,18.103,40.355,40.355,40.355c10.823,0,21.021-4.401,28.481-11.941c7.461,7.54,17.659,11.941,28.482,11.941
				c22.252,0,40.354-18.103,40.354-40.355c0-19.583-14.02-35.952-32.55-39.597v-56.067c70.099-17.989,122.064-81.71,122.064-157.342
				V57h-0.024C418.402,56.753,418.418,56.508,418.418,56.259z M256,15.608c90.958,0,146.81,23.677,146.81,40.651
				c0.001,16.975-55.851,40.652-146.81,40.652S109.19,73.234,109.19,56.26C109.19,39.285,165.042,15.608,256,15.608z
				 M109.189,81.609c8.43,6.172,20.197,11.675,35.148,16.36c29.937,9.382,69.593,14.549,111.662,14.549
				c42.069,0,81.725-5.167,111.663-14.549c14.951-4.685,26.718-10.188,35.148-16.36v95.917h0.001
				c-2.7,0.981-5.567,1.501-8.472,1.501c-13.645,0-24.746-11.101-24.746-24.746v-8.138c0-13.277-10.802-24.079-24.08-24.079
				c-13.277,0-24.079,10.802-24.079,24.079v40.689c0,13.644-11.101,24.746-24.747,24.746c-13.645,0-24.747-11.101-24.747-24.746
				v-20.344c0-11.034-8.977-20.009-20.01-20.009c-11.034,0-20.01,8.977-20.01,20.009v69.17c0,13.644-11.101,24.746-24.747,24.746
				c-13.645,0-24.746-11.101-24.746-24.746v-77.307c0-15.52-12.627-28.148-28.148-28.148s-28.148,12.628-28.148,28.148v4.068
				c0,4.671-3.8,8.472-8.471,8.472c-4.671,0-8.471-3.8-8.471-8.472V81.609z M313.296,471.645c0,13.645-11.1,24.747-24.746,24.747
				c-8.969,0-17.256-4.99-21.627-13.023l-6.855-12.6l-6.855,12.6c-4.37,8.033-12.658,13.023-21.626,13.023
				c-13.645,0-24.747-11.101-24.747-24.747c0-13.644,11.101-24.746,24.747-24.746h7.804v-66.684
				c5.462,0.558,11.003,0.843,16.609,0.843c8.412,0,16.676-0.643,24.747-1.882v67.722h7.804
				C302.196,446.9,313.296,458.001,313.296,471.645z M402.813,218.641h-0.002c0,80.952-65.859,146.811-146.81,146.811
				s-146.81-65.859-146.81-146.811v-33.686c2.637,0.995,5.491,1.543,8.471,1.543c13.277,0,24.079-10.802,24.079-24.08v-4.068
				c0-6.915,5.625-12.54,12.54-12.54c6.914,0,12.54,5.625,12.54,12.54v77.307c0,22.252,18.102,40.354,40.354,40.354
				s40.355-18.102,40.355-40.354v-69.17c0-2.428,1.975-4.401,4.402-4.401c2.427,0,4.402,1.974,4.402,4.401v20.344
				c0,22.252,18.103,40.354,40.355,40.354s40.355-18.102,40.355-40.354v-40.689c0-4.67,3.8-8.471,8.471-8.471s8.472,3.8,8.472,8.471
				v8.138c0,22.252,18.102,40.354,40.354,40.354c2.86,0,5.698-0.318,8.472-0.913V218.641z"/>
		</g>
	</g>
</g>
<g>
</g>
<g>
</g>
<g>
</g>
<g>
</g>
<g>
</g>
<g>
</g>
<g>
</g>
<g>
</g>
<g>
</g>
<g>
</g>
<g>
</g>
<g>
</g>
<g>
</g>
<g>
</g>
<g>
</g>
</svg>
