<?xml version="1.0" encoding="iso-8859-1"?>
<!-- Generator: Adobe Illustrator 19.0.0, SVG Export Plug-In . SVG Version: 6.00 Build 0)  -->
<svg version="1.1" id="Layer_1" xmlns="http://www.w3.org/2000/svg" xmlns:xlink="http://www.w3.org/1999/xlink" x="0px" y="0px"
	 viewBox="0 0 511.999 511.999" style="enable-background:new 0 0 511.999 511.999;" xml:space="preserve">
<g>
	<g>
		<g>
			<path d="M191.916,310.147v73.279c0,32.683,24.599,59.709,56.251,63.587v64.985h15.665v-64.985
				c31.652-3.878,56.251-30.904,56.251-63.587v-73.279l-64.083,54.927L191.916,310.147z M304.418,383.428
				c0,24.031-17.601,44.02-40.586,47.775v-23.668h-15.665v23.668c-22.985-3.756-40.586-23.744-40.586-47.775v-39.221l48.418,41.501
				l48.418-41.501V383.428z"/>
			<path d="M191.916,197.646v73.279c0,35.335,28.748,64.083,64.083,64.083s64.083-28.748,64.083-64.083v-73.279l-64.083,54.929
				L191.916,197.646z M304.418,270.926c0,24.031-17.601,44.02-40.586,47.776v-23.668h-15.665v23.668
				c-22.985-3.755-40.586-23.745-40.586-47.776v-39.221l48.418,41.502l48.418-41.502V270.926z"/>
			<path d="M255.999,140.073l-64.083-54.929v73.279c0,35.335,28.748,64.083,64.083,64.083s64.083-28.748,64.083-64.083V85.145
				L255.999,140.073z M304.418,158.425c0,24.031-17.601,44.02-40.586,47.775v-23.668h-15.665V206.2
				c-22.985-3.755-40.586-23.745-40.586-47.775v-39.221l48.418,41.501l48.418-41.501V158.425z"/>
			<path d="M255.999,118.042c22.042,0,39.975-17.933,39.975-39.975c0-19.221-27.932-60.632-33.531-68.738L255.999,0l-6.444,9.33
				c-5.6,8.106-33.531,49.517-33.531,68.738C216.024,100.11,233.957,118.042,255.999,118.042z M255.999,27.935
				c11.627,18.14,24.31,41.273,24.31,50.132c0,10.666-6.906,19.742-16.478,23.009V78.067h-15.665v23.009
				c-9.573-3.268-16.478-12.344-16.478-23.009C231.689,69.208,244.372,46.075,255.999,27.935z"/>
		</g>
	</g>
</g>
<g>
</g>
<g>
</g>
<g>
</g>
<g>
</g>
<g>
</g>
<g>
</g>
<g>
</g>
<g>
</g>
<g>
</g>
<g>
</g>
<g>
</g>
<g>
</g>
<g>
</g>
<g>
</g>
<g>
</g>
</svg>
