<?xml version="1.0" encoding="iso-8859-1"?>
<!-- Generator: Adobe Illustrator 19.0.0, SVG Export Plug-In . SVG Version: 6.00 Build 0)  -->
<svg version="1.1" id="Layer_1" xmlns="http://www.w3.org/2000/svg" xmlns:xlink="http://www.w3.org/1999/xlink" x="0px" y="0px"
	 viewBox="0 0 512 512" style="enable-background:new 0 0 512 512;" xml:space="preserve">
<g>
	<g>
		<g>
			<path d="M508.497,70.149l-8.863-12.996l-22.001,15.003h-14.279c-3.836-27.099-27.173-48.013-55.315-48.013h-96.162V0h-15.731
				v24.143h-80.294V0h-15.731v24.143h-96.163c-28.141,0-51.478,20.914-55.315,48.013H34.367L12.366,57.153L3.503,70.149
				l14.086,9.605L3.747,88.458l8.373,13.317l22.087-13.888h14.438c3.836,27.098,27.173,48.012,55.315,48.012h96.162v0.136
				c0,28.141,20.914,51.478,48.012,55.314v80.722h15.731v-80.722c27.099-3.835,48.013-27.173,48.013-55.315v-0.136h96.162
				c28.141,0,51.478-20.914,55.315-48.012h14.438l22.087,13.888l8.373-13.317l-13.841-8.703L508.497,70.149z M296.147,136.036
				c0,22.137-18.01,40.148-40.148,40.148s-40.147-18.01-40.147-40.148v-0.136h80.294V136.036z M408.04,120.168H103.959
				c-22.137,0-40.148-18.01-40.148-40.147s18.011-40.148,40.148-40.148H408.04c22.137,0,40.148,18.01,40.148,40.148
				S430.178,120.168,408.04,120.168z"/>
			<rect x="119.965" y="48.15" width="16.004" height="15.731"/>
			<rect x="151.972" y="48.15" width="192.055" height="15.731"/>
			<rect x="248.131" y="464.128" width="15.731" height="16.004"/>
			<rect x="248.131" y="432.11" width="15.731" height="16.005"/>
			<rect x="248.131" y="400.103" width="15.731" height="16.005"/>
			<path d="M216.127,472.125L216.127,472.125C216.127,494.112,234.014,512,256,512c21.987,0,39.874-17.887,39.874-39.875V280.211
				h-79.748V472.125z M231.858,295.942h48.286v16.277h-48.286V295.942z M231.858,327.95h48.286v144.175
				c0,13.313-10.83,24.144-24.143,24.144c-13.313,0-24.143-10.83-24.143-24.144V327.95z"/>
		</g>
	</g>
</g>
<g>
</g>
<g>
</g>
<g>
</g>
<g>
</g>
<g>
</g>
<g>
</g>
<g>
</g>
<g>
</g>
<g>
</g>
<g>
</g>
<g>
</g>
<g>
</g>
<g>
</g>
<g>
</g>
<g>
</g>
</svg>
