<?xml version="1.0" encoding="iso-8859-1"?>
<!-- Generator: Adobe Illustrator 19.0.0, SVG Export Plug-In . SVG Version: 6.00 Build 0)  -->
<svg version="1.1" id="Layer_1" xmlns="http://www.w3.org/2000/svg" xmlns:xlink="http://www.w3.org/1999/xlink" x="0px" y="0px"
	 viewBox="0 0 511.999 511.999" style="enable-background:new 0 0 511.999 511.999;" xml:space="preserve">
<g>
	<g>
		<g>
			<polygon points="387.93,131.824 387.93,116.422 372.208,116.422 372.208,162.948 387.93,162.948 387.93,147.545 426.489,147.545 
				426.489,333.438 387.93,333.438 387.93,318.035 372.208,318.035 372.208,364.561 387.93,364.561 387.93,349.159 442.21,349.159 
				442.21,131.824 			"/>
			<rect x="170.702" y="434.243" width="139.584" height="15.721"/>
			<path d="M209.579,287.017c0-12.885-10.483-23.369-23.369-23.369c-12.886,0-23.37,10.484-23.37,23.369
				c0,12.886,10.484,23.369,23.37,23.369C199.096,310.387,209.579,299.903,209.579,287.017z M178.562,287.017
				c0-4.216,3.43-7.648,7.649-7.648c4.216,0,7.648,3.43,7.648,7.648s-3.43,7.648-7.648,7.648
				C181.993,294.666,178.562,291.234,178.562,287.017z"/>
			<path d="M201.613,333.544c0,12.886,10.483,23.369,23.369,23.369c12.886,0,23.37-10.484,23.37-23.369
				c0-12.885-10.484-23.369-23.37-23.369C212.096,310.174,201.613,320.657,201.613,333.544z M224.982,325.896
				c4.219,0,7.649,3.43,7.649,7.648c0,4.218-3.43,7.648-7.649,7.648c-4.216,0-7.648-3.43-7.648-7.648
				C217.334,329.326,220.764,325.896,224.982,325.896z"/>
			<path d="M290.894,248.352c10.748,0,19.492-8.744,19.492-19.492s-8.744-19.492-19.492-19.492
				c-10.748,0-19.492,8.744-19.492,19.492C271.403,239.608,280.146,248.352,290.894,248.352z M290.894,225.089
				c2.078,0,3.771,1.692,3.771,3.771c0,2.079-1.692,3.771-3.771,3.771c-2.079,0-3.771-1.692-3.771-3.771
				C287.124,226.78,288.816,225.089,290.894,225.089z"/>
			<rect x="170.702" y="325.682" width="15.51" height="15.721"/>
			<rect x="287.018" y="379.962" width="15.509" height="15.721"/>
			<path d="M364.667,448.583V93.052h-9.485c1.12-4.96,1.731-10.11,1.731-15.403c0-38.54-31.354-69.896-69.896-69.896
				c-3.878,0-7.834,0.348-11.802,1.039C267.279,3.099,257.84,0,248.245,0c-14.551,0-28.141,6.901-36.894,18.389
				c-5.603-1.913-11.425-2.88-17.387-2.88c-12.82,0-25.16,4.564-34.895,12.729c-9.734-8.165-22.074-12.729-34.894-12.729
				c-29.989,0-54.387,24.397-54.387,54.387v85.297c0,17.161,13.962,31.124,31.123,31.124c5.602,0,10.857-1.495,15.403-4.096v266.361
				l-5.56,16.678H85.296v46.738h310.386v-46.738h-25.457L364.667,448.583z M348.945,449.964v0.001v1.17l4.709,14.126H127.328
				l4.709-14.126v-1.17h23.156v-15.721h-23.156V155.3h131.717v-11.69c4.955,1.735,10.154,2.911,15.51,3.497v8.192h23.262V145.8
				c5.436-1.238,10.633-3.109,15.509-5.536v15.035h15.51v-15.721h-14.159c12.601-6.619,22.948-16.971,29.56-29.578v324.243h-23.156
				v15.721H348.945z M132.037,139.579v-30.805h23.972c10.136,9.897,23.776,15.508,37.956,15.508c11.941,0,23.444-3.987,32.84-11.186
				c6.668,11.417,16.285,20.51,27.667,26.483H132.037z M100.913,170.596c-8.493,0-15.402-6.909-15.402-15.403V69.896
				c0-21.32,17.346-38.666,38.666-38.666c11.064,0,21.631,4.796,28.994,13.158l5.9,6.699l5.9-6.699
				c7.363-8.362,17.931-13.158,28.995-13.158c5.878,0,11.581,1.332,16.95,3.961l6.744,3.303l3.606-6.586
				c5.467-9.984,15.805-16.186,26.979-16.186c7.257,0,14.134,2.586,19.891,7.476l2.998,2.547l3.835-0.872
				c4.074-0.927,8.127-1.396,12.049-1.396c29.871,0,54.174,24.303,54.174,54.174s-24.303,54.174-54.174,54.174
				c-22.508,0-42.32-13.592-50.474-34.627l-4.754-12.262l-8.548,9.992c-7.411,8.663-18.082,13.631-29.276,13.631
				c-10.925,0-21.406-4.701-28.756-12.897l-2.342-2.613h-46.551v7.861v54.28C116.315,163.687,109.405,170.596,100.913,170.596z
				 M379.962,496.279H101.019v-15.296h278.944V496.279z"/>
			<rect x="147.329" y="178.457" width="15.721" height="54.28"/>
			<rect x="178.353" y="217.226" width="15.721" height="31.017"/>
			<rect x="232.738" y="178.353" width="15.509" height="15.721"/>
			<rect x="147.434" y="395.474" width="15.509" height="15.721"/>
			<rect x="310.17" y="294.774" width="15.721" height="46.524"/>
			<path d="M310.173,77.649h15.721c0-21.438-17.441-38.878-38.878-38.878v15.721C299.786,54.493,310.173,64.882,310.173,77.649z"/>
		</g>
	</g>
</g>
<g>
</g>
<g>
</g>
<g>
</g>
<g>
</g>
<g>
</g>
<g>
</g>
<g>
</g>
<g>
</g>
<g>
</g>
<g>
</g>
<g>
</g>
<g>
</g>
<g>
</g>
<g>
</g>
<g>
</g>
</svg>
