<?xml version="1.0" encoding="iso-8859-1"?>
<!-- Generator: Adobe Illustrator 19.0.0, SVG Export Plug-In . SVG Version: 6.00 Build 0)  -->
<svg version="1.1" id="Layer_1" xmlns="http://www.w3.org/2000/svg" xmlns:xlink="http://www.w3.org/1999/xlink" x="0px" y="0px"
	 viewBox="0 0 512 512" style="enable-background:new 0 0 512 512;" xml:space="preserve">
<g>
	<g>
		<g>
			<rect x="251.311" y="456.354" width="40.031" height="15.617"/>
			<rect x="243.305" y="160.117" width="56.044" height="15.617"/>
			<path d="M210.155,512h122.392l-1.471-9.06c-0.168-1.033-16.757-103.597-15.915-134.642
				c0.831-30.623,15.864-277.993,16.016-280.562v-31.89C331.175,25.052,306.123,0,275.33,0c-18.399,0-35.543,9.11-45.915,24.091
				c-0.687-0.046-1.395-0.073-2.122-0.073c-26.379,0-47.839,21.46-47.839,47.84c0,21.696,14.523,40.055,34.356,45.893
				c4.372,71.168,13.682,225.607,13.682,250.336c0,33.26-15.759,133.88-15.918,134.892L210.155,512z M308.271,456.351h-8.923v15.617
				h11.167c1.457,9.91,2.767,18.432,3.703,24.414h-85.83c0.908-5.972,2.18-14.492,3.601-24.414h11.313v-15.617h-9.121
				c4.298-31.308,8.925-69.398,8.925-88.265c0-24.823-9.086-175.942-13.536-248.448c19.561-0.93,36.463-13.758,42.827-31.965h42.687
				c-2.647,45.001-14.775,252.112-15.537,280.201C299.062,385.809,303.805,424.524,308.271,456.351z M227.293,104.08
				c-17.767,0-32.222-14.455-32.222-32.222c0-17.767,14.454-32.222,32.222-32.222c1.518,0,3.168,0.255,4.915,0.524l5.358,0.826
				l2.647-4.732c7.121-12.728,20.577-20.635,35.118-20.635c22.183,0,40.229,18.046,40.229,40.229v16.147l-55.443-0.446l-1.222,6.394
				C255.996,93.088,242.707,104.08,227.293,104.08z"/>
		</g>
	</g>
</g>
<g>
</g>
<g>
</g>
<g>
</g>
<g>
</g>
<g>
</g>
<g>
</g>
<g>
</g>
<g>
</g>
<g>
</g>
<g>
</g>
<g>
</g>
<g>
</g>
<g>
</g>
<g>
</g>
<g>
</g>
</svg>
