<?xml version="1.0" encoding="iso-8859-1"?>
<!-- Generator: Adobe Illustrator 19.0.0, SVG Export Plug-In . SVG Version: 6.00 Build 0)  -->
<svg version="1.1" id="Layer_1" xmlns="http://www.w3.org/2000/svg" xmlns:xlink="http://www.w3.org/1999/xlink" x="0px" y="0px"
	 viewBox="0 0 512 512" style="enable-background:new 0 0 512 512;" xml:space="preserve">
<g>
	<g>
		<g>
			<rect x="143.941" y="464.238" width="16.008" height="15.747"/>
			<rect x="304.027" width="96.047" height="15.747"/>
			<path d="M183.964,176.089c-5.315,0-10.586,0.768-15.724,2.291c-9.409-6.666-20.716-10.294-32.301-10.294
				c-30.823,0-55.898,25.076-55.898,55.898C80.041,226.033,96.486,512,96.486,512h126.917l16.459-280.012
				C239.862,201.165,214.787,176.089,183.964,176.089z M208.557,496.253h-97.196l-0.93-16.269h25.509v-15.747h-26.409
				l-11.38-199.138c4.089,3.759,8.758,6.942,13.907,9.378v17.542c0,19.789,16.1,35.888,35.888,35.888
				c19.788,0,35.888-16.1,35.888-35.888v-4.132c0.043,0,0.087,0,0.13,0c14.521,0,27.764-5.569,37.712-14.679L208.557,496.253z
				 M223.82,236.777c-2.376,19.889-19.338,35.362-39.856,35.362c-2.062,0-4.253-0.199-6.699-0.611l-9.178-1.542v22.034
				c0,11.106-9.035,20.141-20.141,20.141s-20.141-9.036-20.141-20.141v-28.366l-5.246-1.857
				c-14.5-5.134-24.692-18.081-26.487-33.065l-0.279-4.895c0.081-22.07,18.058-40.002,40.147-40.002
				c9.406,0,18.56,3.333,25.775,9.386l3.554,2.98l4.329-1.663c4.665-1.791,9.499-2.7,14.367-2.7
				c22.084,0,40.058,17.922,40.147,39.986L223.82,236.777z"/>
			<path d="M387.87,77.275c-0.492-1.808,0.253-3.149,0.741-3.789c0.488-0.638,1.586-1.71,3.459-1.71h7.874V24.012h-95.787v47.763
				h7.874c1.873,0,2.971,1.072,3.459,1.711c0.488,0.639,1.234,1.981,0.741,3.788l-44.092,161.663V512h159.82V238.937L387.87,77.275z
				 M331.422,81.418c1.663-6.094,0.416-12.47-3.418-17.49c-2.159-2.826-4.948-4.974-8.1-6.311V39.76h64.293v17.857
				c-3.153,1.337-5.941,3.485-8.1,6.311c-3.834,5.02-5.081,11.395-3.418,17.49l41.099,150.701H290.322L331.422,81.418z
				 M287.886,247.866h128.326v80.301H287.886V247.866z M287.886,496.253V343.914h128.326v152.338H287.886z"/>
			<rect x="304.027" y="464.238" width="96.047" height="15.747"/>
			<rect x="304.027" y="264.133" width="96.047" height="15.747"/>
			<rect x="312.026" y="296.152" width="16.008" height="15.747"/>
			<rect x="344.046" y="296.152" width="16.008" height="15.747"/>
			<rect x="376.065" y="296.152" width="16.008" height="15.747"/>
		</g>
	</g>
</g>
<g>
</g>
<g>
</g>
<g>
</g>
<g>
</g>
<g>
</g>
<g>
</g>
<g>
</g>
<g>
</g>
<g>
</g>
<g>
</g>
<g>
</g>
<g>
</g>
<g>
</g>
<g>
</g>
<g>
</g>
</svg>
