<?xml version="1.0" encoding="iso-8859-1"?>
<!-- Generator: Adobe Illustrator 19.0.0, SVG Export Plug-In . SVG Version: 6.00 Build 0)  -->
<svg version="1.1" id="Layer_1" xmlns="http://www.w3.org/2000/svg" xmlns:xlink="http://www.w3.org/1999/xlink" x="0px" y="0px"
	 viewBox="0 0 512.64 512.64" style="enable-background:new 0 0 512.64 512.64;" xml:space="preserve">
<g transform="translate(1 1)">
	<g>
		<g>
			<path d="M494.295,104.6l-86.187-87.04c-24.747-24.747-59.733-24.747-84.48,0c-0.853,0-0.853,0.853-0.853,0.853L16.428,387.907
				c-24.747,29.867-23.04,73.387,5.12,101.547c15.36,14.507,34.133,22.187,53.76,22.187c17.067,0,34.133-5.973,48.64-17.067
				L494.295,189.08C517.335,165.187,517.335,127.64,494.295,104.6z M481.495,176.28L112.001,480.92
				c-23.04,19.627-57.173,17.92-78.507-3.413c-21.333-21.333-23.04-55.467-3.413-79.36L335.575,30.36
				c17.92-17.92,41.813-17.92,59.733,0l85.333,86.187C497.708,133.613,497.708,160.067,481.495,176.28z"/>
			<path d="M338.135,247.96L201.601,356.333c-4.267,2.56-4.267,8.533-1.707,11.947c1.707,2.56,4.267,3.413,6.827,3.413
				c1.707,0,3.413-0.853,5.12-1.707l136.533-108.373c4.267-2.56,4.267-8.533,1.707-11.947
				C347.521,245.4,341.548,245.4,338.135,247.96z"/>
			<path d="M262.188,161.773c-3.413-2.56-9.387-1.707-11.947,1.707L141.868,300.013c-2.56,3.413-1.707,9.387,1.707,11.947
				c1.707,0.853,3.413,1.707,5.12,1.707c2.56,0,5.12-0.853,6.827-3.413L263.895,173.72
				C266.455,170.307,265.601,164.333,262.188,161.773z"/>
			<path d="M372.268,55.96c-4.267-3.413-9.387-5.12-14.507-5.12c-5.12,0-10.24,2.56-13.653,6.827l-43.52,55.467
				c-2.56,3.413-2.56,7.68,0.853,11.093l29.013,29.013c3.413,3.413,8.533,3.413,11.947,0l7.68-8.533c0.853,0,1.707,0,1.707,0
				l15.36,15.36c0,0.853,0,1.707,0,1.707l-7.68,7.68c-1.707,1.707-2.56,3.413-2.56,5.973s0.853,4.267,2.56,5.973l29.013,29.013
				c1.707,1.707,3.413,2.56,5.973,2.56c1.707,0,3.413-0.853,5.12-0.853l55.467-43.52c4.267-3.413,6.827-8.533,6.827-13.653
				c0.853-5.12-1.707-11.093-5.12-14.507L372.268,55.96z M443.948,154.093l-49.493,38.4l-17.067-17.067l1.707-1.707
				c6.827-6.827,6.827-18.773,0-25.6l-15.36-15.36c-6.827-6.827-18.773-6.827-25.6,0l-1.707,1.707L319.361,117.4l38.4-49.493
				c0-0.853,0.853-0.853,0.853-0.853s0,0,0.853,0.853l84.48,84.48c0.853,0,0.853,0.853,0.853,0.853S444.801,154.093,443.948,154.093
				z"/>
			<path d="M52.268,410.093c-13.653,13.653-13.653,34.987,0,48.64c5.973,6.827,14.507,10.24,23.893,10.24s17.92-3.413,23.893-10.24
				c6.827-5.973,10.24-15.36,10.24-23.893s-3.413-17.067-9.387-24.747C87.255,396.44,65.921,396.44,52.268,410.093z M88.108,446.787
				c-6.827,6.827-17.067,6.827-23.893,0s-6.827-17.067,0-23.893c3.413-3.413,7.68-5.12,11.947-5.12s8.533,1.707,11.947,5.12
				c3.413,3.413,5.12,6.827,5.12,11.947S91.521,444.227,88.108,446.787z"/>
		</g>
	</g>
</g>
<g>
</g>
<g>
</g>
<g>
</g>
<g>
</g>
<g>
</g>
<g>
</g>
<g>
</g>
<g>
</g>
<g>
</g>
<g>
</g>
<g>
</g>
<g>
</g>
<g>
</g>
<g>
</g>
<g>
</g>
</svg>
