<?xml version="1.0" encoding="iso-8859-1"?>
<!-- Generator: Adobe Illustrator 19.0.0, SVG Export Plug-In . SVG Version: 6.00 Build 0)  -->
<svg version="1.1" id="Layer_1" xmlns="http://www.w3.org/2000/svg" xmlns:xlink="http://www.w3.org/1999/xlink" x="0px" y="0px"
	 viewBox="0 0 512 512" style="enable-background:new 0 0 512 512;" xml:space="preserve">
<g transform="translate(1 1)">
	<path style="fill:#FD9808;" d="M195.267,148.333c-2.56-3.413-5.12-6.827-8.533-9.387c-11.093-7.68-17.067-20.48-17.067-34.133
		V92.867h-51.2v12.8c0,13.653-5.973,25.6-17.067,34.133c-11.093,7.68-17.067,20.48-17.067,34.133V485.4
		c0,9.387,7.68,17.067,17.067,17.067h93.867V148.333z"/>
	<path style="fill:#FFDD09;" d="M169.667,148.333c-1.707-3.413-4.267-6.827-6.827-9.387c-8.533-7.68-12.8-20.48-12.8-34.133V92.867
		h-39.253v12.8c0,13.653-4.267,25.6-12.8,34.133c-8.533,7.68-13.653,20.48-13.653,34.133V485.4c0,9.387,5.973,17.067,12.8,17.067
		h72.533V148.333z"/>
	<path style="fill:#FFFFFF;" d="M92.867,139.8c11.093-7.68,17.067-20.48,17.067-34.133v-12.8h19.627v12.8
		c0,13.653-4.267,25.6-12.8,34.133c-2.56,2.56-5.12,5.973-6.827,9.387v353.28h-25.6V148.333
		C86.893,144.92,89.453,142.36,92.867,139.8"/>
	<path style="fill:#FD9808;" d="M289.133,58.733h-68.267c-5.12,0-8.533-3.413-8.533-8.533V16.067c0-5.12,3.413-8.533,8.533-8.533
		h68.267c5.12,0,8.533,3.413,8.533,8.533V50.2C297.667,55.32,294.253,58.733,289.133,58.733"/>
	<path style="fill:#FFDD09;" d="M263.533,58.733h-42.667c-5.12,0-8.533-3.413-8.533-8.533V16.067c0-5.12,3.413-8.533,8.533-8.533
		h42.667c5.12,0,8.533,3.413,8.533,8.533V50.2C272.067,55.32,268.653,58.733,263.533,58.733"/>
	<path style="fill:#FD9808;" d="M178.2,92.867h-68.267c-5.12,0-8.533-3.413-8.533-8.533V50.2c0-5.12,3.413-8.533,8.533-8.533H178.2
		c5.12,0,8.533,3.413,8.533,8.533v34.133C186.733,89.453,183.32,92.867,178.2,92.867"/>
	<path style="fill:#FFDD09;" d="M152.6,92.867h-42.667c-5.12,0-8.533-3.413-8.533-8.533V50.2c0-5.12,3.413-8.533,8.533-8.533H152.6
		c5.12,0,8.533,3.413,8.533,8.533v34.133C161.133,89.453,157.72,92.867,152.6,92.867"/>
	<path style="fill:#FD9808;" d="M297.667,105.667c-11.093-7.68-17.067-20.48-17.067-34.133v-12.8h-51.2v12.8
		c0,13.653-5.973,25.6-17.067,34.133c-11.093,7.68-17.067,20.48-17.067,34.133v362.667h119.467V139.8
		C314.733,126.147,307.907,113.347,297.667,105.667"/>
	<path style="fill:#FFDD09;" d="M275.48,105.667c-8.533-7.68-12.8-20.48-12.8-34.133v-12.8h-40.107v12.8
		c0,13.653-4.267,25.6-12.8,34.133c-8.533,7.68-13.653,20.48-13.653,34.133v362.667h93.867V139.8
		C289.133,126.147,284.013,113.347,275.48,105.667"/>
	<path style="fill:#FD9808;" d="M400.067,92.867H331.8c-5.12,0-8.533-3.413-8.533-8.533V50.2c0-5.12,3.413-8.533,8.533-8.533h68.267
		c5.12,0,8.533,3.413,8.533,8.533v34.133C408.6,89.453,405.187,92.867,400.067,92.867"/>
	<path style="fill:#FFDD09;" d="M374.467,92.867H331.8c-5.12,0-8.533-3.413-8.533-8.533V50.2c0-5.12,3.413-8.533,8.533-8.533h42.667
		c5.12,0,8.533,3.413,8.533,8.533v34.133C383,89.453,379.587,92.867,374.467,92.867"/>
	<path style="fill:#FD9808;" d="M314.733,502.467H408.6c9.387,0,17.067-7.68,17.067-17.067V173.933
		c0-13.653-6.827-26.453-17.067-34.133c-11.093-7.68-17.067-20.48-17.067-34.133v-12.8h-51.2v12.8
		c0,13.653-5.973,25.6-17.067,34.133c-3.413,2.56-6.827,5.973-8.533,9.387V502.467z"/>
	<path style="fill:#FFDD09;" d="M314.733,502.467h72.533c6.827,0,12.8-7.68,12.8-17.067V173.933c0-13.653-5.12-26.453-13.653-34.133
		c-8.533-7.68-12.8-20.48-12.8-34.133v-12.8H334.36v12.8c0,13.653-4.267,25.6-12.8,34.133c-2.56,2.56-5.12,5.973-6.827,9.387
		L314.733,502.467L314.733,502.467z"/>
	<polygon style="fill:#33A9F8;" points="314.733,314.733 425.667,314.733 425.667,195.267 314.733,195.267 	"/>
	<polygon style="fill:#54C9FD;" points="314.733,314.733 400.067,314.733 400.067,195.267 314.733,195.267 	"/>
	<polygon style="fill:#33A9F8;" points="195.267,280.6 306.2,280.6 306.2,161.133 195.267,161.133 	"/>
	<polygon style="fill:#54C9FD;" points="195.267,280.6 280.6,280.6 280.6,161.133 195.267,161.133 	"/>
	<polygon style="fill:#33A9F8;" points="84.333,314.733 195.267,314.733 195.267,195.267 84.333,195.267 	"/>
	<polygon style="fill:#54C9FD;" points="84.333,314.733 169.667,314.733 169.667,195.267 84.333,195.267 	"/>
	<path d="M314.733,289.133H195.267c-5.12,0-8.533-3.413-8.533-8.533V161.133c0-5.12,3.413-8.533,8.533-8.533h119.467
		c5.12,0,8.533,3.413,8.533,8.533V280.6C323.267,285.72,319.853,289.133,314.733,289.133z M203.8,272.067h102.4v-102.4H203.8
		V272.067z"/>
	<path d="M314.733,511H195.267c-5.12,0-8.533-3.413-8.533-8.533V139.8c0-16.213,7.68-31.573,21.333-40.96
		c8.533-5.973,12.8-16.213,12.8-27.307v-12.8c0-5.12,3.413-8.533,8.533-8.533h51.2c5.12,0,8.533,3.413,8.533,8.533v12.8
		c0,11.093,5.12,21.333,12.8,27.307c12.8,9.387,21.333,24.747,21.333,40.96v362.667C323.267,507.587,319.853,511,314.733,511z
		 M203.8,493.933h102.4V139.8c0-11.093-5.12-21.333-13.653-27.307l0,0c-12.8-9.387-20.48-24.747-20.48-40.96v-4.267h-34.133v4.267
		c0,16.213-7.68,31.573-20.48,40.96C208.92,119.32,203.8,129.56,203.8,139.8V493.933z"/>
	<path d="M263.533,212.333h-17.067c-5.12,0-8.533-3.413-8.533-8.533c0-5.12,3.413-8.533,8.533-8.533h17.067
		c5.12,0,8.533,3.413,8.533,8.533C272.067,208.92,268.653,212.333,263.533,212.333z"/>
	<path d="M280.6,246.467h-51.2c-5.12,0-8.533-3.413-8.533-8.533c0-5.12,3.413-8.533,8.533-8.533h51.2
		c5.12,0,8.533,3.413,8.533,8.533C289.133,243.053,285.72,246.467,280.6,246.467z"/>
	<path d="M289.133,67.267h-68.267c-9.387,0-17.067-7.68-17.067-17.067V16.067C203.8,6.68,211.48-1,220.867-1h68.267
		C298.52-1,306.2,6.68,306.2,16.067V50.2C306.2,59.587,298.52,67.267,289.133,67.267z M289.133,50.2v8.533V50.2L289.133,50.2z
		 M220.867,16.067V50.2h68.267V16.067H220.867z"/>
	<path d="M152.6,246.467h-17.067c-5.12,0-8.533-3.413-8.533-8.533c0-5.12,3.413-8.533,8.533-8.533H152.6
		c5.12,0,8.533,3.413,8.533,8.533C161.133,243.053,157.72,246.467,152.6,246.467z"/>
	<path d="M169.667,280.6h-51.2c-5.12,0-8.533-3.413-8.533-8.533s3.413-8.533,8.533-8.533h51.2c5.12,0,8.533,3.413,8.533,8.533
		S174.787,280.6,169.667,280.6z"/>
	<path d="M178.2,101.4h-68.267c-9.387,0-17.067-7.68-17.067-17.067V50.2c0-9.387,7.68-17.067,17.067-17.067H178.2
		c9.387,0,17.067,7.68,17.067,17.067v34.133C195.267,93.72,187.587,101.4,178.2,101.4z M178.2,84.333v8.533V84.333L178.2,84.333z
		 M109.933,50.2v34.133H178.2V50.2H109.933z"/>
	<path d="M374.467,246.467H357.4c-5.12,0-8.533-3.413-8.533-8.533c0-5.12,3.413-8.533,8.533-8.533h17.067
		c5.12,0,8.533,3.413,8.533,8.533C383,243.053,379.587,246.467,374.467,246.467z"/>
	<path d="M391.533,280.6h-51.2c-5.12,0-8.533-3.413-8.533-8.533s3.413-8.533,8.533-8.533h51.2c5.12,0,8.533,3.413,8.533,8.533
		S396.653,280.6,391.533,280.6z"/>
	<path d="M400.067,101.4H331.8c-9.387,0-17.067-7.68-17.067-17.067V50.2c0-9.387,7.68-17.067,17.067-17.067h68.267
		c9.387,0,17.067,7.68,17.067,17.067v34.133C417.133,93.72,409.453,101.4,400.067,101.4z M400.067,84.333v8.533V84.333
		L400.067,84.333z M331.8,50.2v34.133h68.267V50.2H331.8z"/>
	<path d="M144.067,485.4H127c-14.507,0-25.6-11.093-25.6-25.6v-17.067c0-5.12,3.413-8.533,8.533-8.533
		c5.12,0,8.533,3.413,8.533,8.533V459.8c0,5.12,3.413,8.533,8.533,8.533h17.067c5.12,0,8.533,3.413,8.533,8.533
		C152.6,481.987,149.187,485.4,144.067,485.4z"/>
	<path d="M255,485.4h-17.067c-14.507,0-25.6-11.093-25.6-25.6v-17.067c0-5.12,3.413-8.533,8.533-8.533
		c5.12,0,8.533,3.413,8.533,8.533V459.8c0,5.12,3.413,8.533,8.533,8.533H255c5.12,0,8.533,3.413,8.533,8.533
		C263.533,481.987,260.12,485.4,255,485.4z"/>
	<path d="M374.467,485.4H357.4c-14.507,0-25.6-11.093-25.6-25.6v-17.067c0-5.12,3.413-8.533,8.533-8.533
		c5.12,0,8.533,3.413,8.533,8.533V459.8c0,5.12,3.413,8.533,8.533,8.533h17.067c5.12,0,8.533,3.413,8.533,8.533
		C383,481.987,379.587,485.4,374.467,485.4z"/>
	<path d="M195.267,511H101.4c-14.507,0-25.6-11.093-25.6-25.6V173.933c0-16.213,7.68-31.573,21.333-40.96
		c7.68-5.973,12.8-16.213,12.8-27.307v-12.8c0-5.12,3.413-8.533,8.533-8.533h51.2c5.12,0,8.533,3.413,8.533,8.533v12.8
		c0,11.093,5.12,21.333,12.8,27.307c4.267,2.56,7.68,6.827,11.093,11.093c0.853,1.707,1.707,3.413,1.707,5.12v353.28
		C203.8,507.587,200.387,511,195.267,511z M127,101.4v4.267c0,16.213-7.68,31.573-20.48,40.96
		c-8.533,6.827-13.653,17.067-13.653,27.307V485.4c0,5.12,3.413,8.533,8.533,8.533h85.333V151.747
		c-1.707-1.707-3.413-3.413-5.12-5.12c-12.8-9.387-20.48-24.747-20.48-40.96V101.4H127z"/>
	<path d="M195.267,323.267H84.333c-5.12,0-8.533-3.413-8.533-8.533V195.267c0-5.12,3.413-8.533,8.533-8.533h110.933
		c5.12,0,8.533,3.413,8.533,8.533v119.467C203.8,319.853,200.387,323.267,195.267,323.267z M92.867,306.2h93.867V203.8H92.867V306.2
		z"/>
	<path d="M408.6,511h-93.867c-5.12,0-8.533-3.413-8.533-8.533V148.333c0-1.707,0.853-3.413,1.707-5.12
		c3.413-4.267,6.827-7.68,11.093-11.093c8.533-5.973,12.8-16.213,12.8-27.307V92.867c0-5.12,3.413-8.533,8.533-8.533h51.2
		c5.12,0,8.533,3.413,8.533,8.533v12.8c0,11.093,5.12,21.333,12.8,27.307c12.8,9.387,21.333,24.747,21.333,40.96V485.4
		C434.2,499.907,423.107,511,408.6,511z M323.267,493.933H408.6c5.12,0,8.533-3.413,8.533-8.533V173.933
		c0-11.093-5.12-21.333-13.653-27.307c-12.8-9.387-20.48-24.747-20.48-40.96V101.4h-34.133v4.267c0,16.213-7.68,31.573-20.48,40.96
		c-1.707,1.707-3.413,3.413-5.12,5.12V493.933z"/>
	<path d="M425.667,323.267H314.733c-5.12,0-8.533-3.413-8.533-8.533V195.267c0-5.12,3.413-8.533,8.533-8.533h110.933
		c5.12,0,8.533,3.413,8.533,8.533v119.467C434.2,319.853,430.787,323.267,425.667,323.267z M323.267,306.2h93.867V203.8h-93.867
		V306.2z"/>
</g>
<g>
</g>
<g>
</g>
<g>
</g>
<g>
</g>
<g>
</g>
<g>
</g>
<g>
</g>
<g>
</g>
<g>
</g>
<g>
</g>
<g>
</g>
<g>
</g>
<g>
</g>
<g>
</g>
<g>
</g>
</svg>
