<?xml version="1.0" encoding="iso-8859-1"?>
<!-- Generator: Adobe Illustrator 19.0.0, SVG Export Plug-In . SVG Version: 6.00 Build 0)  -->
<svg version="1.1" id="Layer_1" xmlns="http://www.w3.org/2000/svg" xmlns:xlink="http://www.w3.org/1999/xlink" x="0px" y="0px"
	 viewBox="0 0 512.64 512.64" style="enable-background:new 0 0 512.64 512.64;" xml:space="preserve">
<g transform="translate(0 1)">
	<path style="fill:#FD9808;" d="M28.521,483.48L28.521,483.48c-24.747-24.747-26.453-64-4.267-90.453l306.347-368.64
		c21.333-20.48,50.347-21.333,72.533,0l85.333,86.187c19.627,19.627,19.627,52.053,0,72.533l-369.493,304.64
		C92.521,509.933,53.268,508.227,28.521,483.48"/>
	<path style="fill:#FFDD09;" d="M22.548,476.653L22.548,476.653c-21.333-21.333-20.48-58.027,1.707-83.627L334.868,27.8
		c21.333-20.48,48.64-23.04,67.413-5.12l75.093,75.093c17.067,17.067,15.36,46.933-5.12,67.413l-366.08,309.76
		C79.721,497.133,43.881,497.987,22.548,476.653"/>
	<g>
		<path style="fill:#54C9FD;" d="M351.935,61.933l-43.52,55.467l29.013,29.013l7.68-7.68c3.413-3.413,9.387-3.413,13.653,0
			l15.36,15.36c3.413,3.413,3.413,9.387,0,13.653l-7.68,7.68l29.013,29.013l55.467-43.52c5.12-3.413,5.12-11.093,0.853-15.36
			l-84.48-84.48C363.028,56.813,355.348,57.667,351.935,61.933"/>
		<path style="fill:#54C9FD;" d="M95.081,453.613c-10.24,10.24-26.453,10.24-35.84,0c-10.24-10.24-10.24-26.453,0-35.84
			c10.24-10.24,26.453-10.24,35.84,0C105.321,427.16,105.321,443.373,95.081,453.613"/>
	</g>
	<path d="M76.308,511.64c-19.627,0-38.4-7.68-53.76-22.187c-28.16-28.16-29.867-71.68-5.12-101.547L323.775,18.413
		c0,0,0-0.853,0.853-0.853c24.747-24.747,59.733-24.747,84.48,0l86.187,87.04c23.04,23.04,23.04,60.587,0,84.48L124.948,494.573
		C110.441,505.667,93.375,511.64,76.308,511.64z M336.575,30.36L31.081,398.147c-19.627,23.893-17.92,58.027,3.413,79.36
		c21.333,21.333,55.467,23.04,78.507,3.413l369.493-304.64c16.213-16.213,16.213-42.667-0.853-59.733L396.308,30.36
		C378.388,12.44,354.495,12.44,336.575,30.36z"/>
	<path d="M207.721,371.693c-2.56,0-5.12-0.853-6.827-3.413c-2.56-3.413-2.56-9.387,1.707-11.947L339.135,247.96
		c3.413-2.56,9.387-2.56,11.947,1.707c2.56,3.413,2.56,9.387-1.707,11.947L212.841,369.987
		C211.135,370.84,209.428,371.693,207.721,371.693z"/>
	<path d="M149.695,313.667c-1.707,0-3.413-0.853-5.12-1.707c-3.413-2.56-4.267-8.533-1.707-11.947L251.241,163.48
		c2.56-3.413,8.533-4.267,11.947-1.707c3.413,2.56,4.267,8.533,1.707,11.947L156.521,310.253
		C154.815,312.813,152.255,313.667,149.695,313.667z"/>
	<path d="M395.455,212.973c-2.56,0-4.267-0.853-5.973-2.56L360.468,181.4c-1.707-1.707-2.56-3.413-2.56-5.973
		c0-2.56,0.853-4.267,2.56-5.973l7.68-7.68c0,0,0-0.853,0-1.707l-15.36-15.36c0,0-0.853,0-1.707,0l-7.68,8.533
		c-3.413,3.413-8.533,3.413-11.947,0l-29.013-29.013c-3.413-3.413-3.413-7.68-0.853-11.093l43.52-55.467l0,0
		c3.413-4.267,8.533-6.827,13.653-6.827c5.12,0,10.24,1.707,14.507,5.12l84.48,84.48c3.413,3.413,5.973,9.387,5.12,14.507
		c0,5.12-2.56,10.24-6.827,13.653l-55.467,43.52C398.868,212.12,397.161,212.973,395.455,212.973z M378.388,175.427l17.067,17.067
		l49.493-38.4c0.853,0,0.853-0.853,0.853-0.853s0-0.853-0.853-0.853l-84.48-84.48c-0.853-0.853-0.853-0.853-0.853-0.853
		s-0.853,0-0.853,0.853l-38.4,49.493l17.067,17.067l1.707-1.707c6.827-6.827,18.773-6.827,25.6,0l15.36,15.36
		c6.827,6.827,6.827,18.773,0,25.6L378.388,175.427z"/>
	<path d="M77.161,468.973c-9.387,0-17.92-3.413-23.893-10.24c-13.653-13.653-13.653-34.987,0-48.64
		c13.653-13.653,34.987-13.653,48.64,0c5.973,7.68,9.387,16.213,9.387,24.747s-3.413,17.92-10.24,23.893l0,0
		C95.081,465.56,86.548,468.973,77.161,468.973z M95.081,453.613L95.081,453.613L95.081,453.613z M77.161,417.773
		c-4.267,0-8.533,1.707-11.947,5.12c-6.827,6.827-6.827,17.067,0,23.893c6.827,6.827,17.067,6.827,23.893,0l0,0
		c3.413-3.413,5.12-7.68,5.12-11.947s-1.707-8.533-5.12-11.947C85.695,419.48,81.428,417.773,77.161,417.773z"/>
</g>
<g>
</g>
<g>
</g>
<g>
</g>
<g>
</g>
<g>
</g>
<g>
</g>
<g>
</g>
<g>
</g>
<g>
</g>
<g>
</g>
<g>
</g>
<g>
</g>
<g>
</g>
<g>
</g>
<g>
</g>
</svg>
