<?xml version="1.0" encoding="UTF-8" standalone="no"?>
<!-- Generator: Adobe Illustrator 18.0.0, SVG Export Plug-In . SVG Version: 6.00 Build 0)  -->

<svg
   xmlns:dc="http://purl.org/dc/elements/1.1/"
   xmlns:cc="http://creativecommons.org/ns#"
   xmlns:rdf="http://www.w3.org/1999/02/22-rdf-syntax-ns#"
   xmlns:svg="http://www.w3.org/2000/svg"
   xmlns="http://www.w3.org/2000/svg"
   xmlns:sodipodi="http://sodipodi.sourceforge.net/DTD/sodipodi-0.dtd"
   xmlns:inkscape="http://www.inkscape.org/namespaces/inkscape"
   version="1.1"
   id="Capa_1"
   x="0px"
   y="0px"
   viewBox="0 0 479.786 479.786"
   style="enable-background:new 0 0 479.786 479.786;"
   xml:space="preserve"
   sodipodi:docname="study.svg"
   inkscape:version="0.92.4 (5da689c313, 2019-01-14)"><metadata
   id="metadata4559"><rdf:RDF><cc:Work
       rdf:about=""><dc:format>image/svg+xml</dc:format><dc:type
         rdf:resource="http://purl.org/dc/dcmitype/StillImage" /><dc:title></dc:title></cc:Work></rdf:RDF></metadata><defs
   id="defs4557" /><sodipodi:namedview
   pagecolor="#ffffff"
   bordercolor="#666666"
   borderopacity="1"
   objecttolerance="10"
   gridtolerance="10"
   guidetolerance="10"
   inkscape:pageopacity="0"
   inkscape:pageshadow="2"
   inkscape:window-width="2736"
   inkscape:window-height="1699"
   id="namedview4555"
   showgrid="false"
   inkscape:zoom="2.9012934"
   inkscape:cx="239.89301"
   inkscape:cy="267.46691"
   inkscape:window-x="-13"
   inkscape:window-y="-13"
   inkscape:window-maximized="1"
   inkscape:current-layer="Capa_1" />
<g
   id="g4522">
	<path
   d="M299.152,291.883c0.235-0.628,0.37-1.306,0.37-2.016c0-3.185-2.582-5.768-5.768-5.768c-0.065,0-0.13,0.008-0.196,0.01   l2.648-15.252c2.471-12.551,2.643-25.289,0.734-37.652c-6.412,7.602-15.67,12.019-25.68,12.019c-2.894,0-5.786-0.375-8.586-1.118   c-5.975-1.571-11.166-4.84-15.342-9.087l30.295,56.189c-11.002,5.501-19.269,14.089-24.242,20.499   c-4.881-6.201-12.355-10.259-20.848-10.259h-27.635c-10.792,0-20.066,6.475-24.241,15.725c-8.086-2.808-16.858-2.808-24.944,0   c-4.177-9.242-13.451-15.725-24.242-15.725h-27.635c-8.492,0-15.982,4.066-20.862,10.267c-4.976-6.406-13.23-15.011-24.234-20.512   l39.419-73.176c5.553-10.283,17.971-13.997,27.855-8.313c26.273,15.084,58.053,15.084,84.295,0.008   c9.885-5.684,22.334-1.978,27.871,8.321l0.391,0.727c-0.142-0.61-0.453-1.142-0.563-1.768l-4.536-27.947   c-20.862-15.828-35.078-36.15-41.537-58.507c-3.16-0.415-6.334-0.767-9.432-0.767h-28.666c-30.467,0-64.873,20.731-89.114,48.67   c-22.005,25.352-31.043,59.437-24.584,92.374l2.626,15.415c-0.117-0.007-0.233-0.018-0.352-0.018c-3.063,0-5.546,2.483-5.546,5.545   c0,0.731,0.146,1.428,0.402,2.067c-7.534,4.433-13.146,12.034-15.868,22.298c-3.003,11.361-2.203,24.655,2.237,37.417   c7.132,20.504,22.411,35.447,38.833,38.246c20.408,44.298,58.24,89.989,105.706,89.989c47.466,0,85.282-45.643,105.708-89.926   c16.107-2.62,31.59-17.634,38.832-38.309C321.498,326.212,315.411,301.508,299.152,291.883z M204.904,311.46h27.635   c8.068,0,14.639,6.567,14.639,14.645c0,8.07-6.57,14.631-14.639,14.631h-27.635c-5.334,0-9.806-3.011-12.355-7.28   c5.08-1.198,4.723-7.124,2.377-9.47c-1.126-1.126-2.408-2.01-3.629-2.964C193.376,315.463,198.632,311.46,204.904,311.46z    M103.841,311.46h27.635c6.271,0,11.526,4.004,13.607,9.556c-1.221,0.961-2.502,1.837-3.629,2.963   c-2.346,2.346-3.114,7.928,2.377,9.493c-2.566,4.262-7.021,7.265-12.355,7.265h-27.635c-8.069,0-14.639-6.561-14.639-14.631   C89.202,318.027,95.772,311.46,103.841,311.46z M297.597,346.281c-6.426,18.361-19.297,27.971-28.932,27.971   c-3.27,0.367-6.193,1.845-7.476,4.801c-17.876,40.96-51.688,84.718-93.008,84.718c-41.288,0-75.101-43.758-92.976-84.71   c-1.268-2.918-4.582-4.794-7.773-4.794c-10.791,0-23.115-12.026-28.668-27.978c-3.361-9.643-4.05-19.87-1.876-28.066   c1.095-4.159,3.956-11.502,10.792-13.88c0.703-0.25,1.828-0.383,3.019-0.5c2.063-0.211,3.863-1.228,5.144-2.698   c11.949,6.952,19.863,18.681,21.693,21.599c-0.143,1.11-0.346,2.212-0.346,3.361c0,14.694,11.949,26.642,26.65,26.642h27.635   c14.374,0,26.041-11.447,26.557-25.695c6.475-2.761,13.842-2.761,20.316,0.016c0.516,14.239,12.182,25.68,26.555,25.68h27.635   c14.701,0,26.649-11.948,26.649-26.642c0-1.156-0.204-2.267-0.345-3.385c1.861-2.971,9.775-14.647,21.676-21.575   c1.299,1.47,3.098,2.495,5.178,2.707c1.143,0.117,2.236,0.234,3.003,0.508C300.038,308.308,304.105,327.513,297.597,346.281z"
   id="path4518" />
	<path
   d="M332.052,0C261.409,0,203.95,45.44,203.95,101.297c0,29.637,16.076,57.396,44.26,76.649l5.598,34.436   c1.143,6.881,6.224,12.474,12.95,14.24c1.47,0.391,2.987,0.587,4.503,0.587c5.428,0,10.463-2.431,13.826-6.663l16.641-20.878   c10.071,1.939,20.252,2.916,30.324,2.916c70.642,0,128.117-45.44,128.117-101.288C460.169,45.44,402.694,0,332.052,0z    M332.052,186.57c-10.541,0-21.239-1.196-31.764-3.557l-4.897-1.104l-22.832,28.66c-0.298,0.391-0.783,0.625-1.299,0.625   l-0.423-0.054c-0.641-0.171-1.126-0.711-1.234-1.345l-6.709-41.396l-3.003-1.932c-25.383-16.296-39.928-40.053-39.928-65.17   c0-47.028,50.279-85.282,112.088-85.282c61.807,0,112.103,38.254,112.103,85.282C444.155,148.317,393.859,186.57,332.052,186.57z"
   id="path4520" />
</g>
<g
   id="g4524">
</g>
<g
   id="g4526">
</g>
<g
   id="g4528">
</g>
<g
   id="g4530">
</g>
<g
   id="g4532">
</g>
<g
   id="g4534">
</g>
<g
   id="g4536">
</g>
<g
   id="g4538">
</g>
<g
   id="g4540">
</g>
<g
   id="g4542">
</g>
<g
   id="g4544">
</g>
<g
   id="g4546">
</g>
<g
   id="g4548">
</g>
<g
   id="g4550">
</g>
<g
   id="g4552">
</g>
<flowRoot
   xml:space="preserve"
   id="flowRoot4561"
   style="font-style:normal;font-weight:normal;font-size:23.58266068px;line-height:1.25;font-family:sans-serif;letter-spacing:0px;word-spacing:0px;fill:#000000;fill-opacity:1;stroke:none"
   transform="matrix(1.4800935,0,0,1.3423693,-138.34393,-0.55523869)"><flowRegion
     id="flowRegion4563"
     style="font-size:23.58266068px"><rect
       id="rect4565"
       width="150.2778"
       height="102.71281"
       x="259.53943"
       y="44.462929"
       style="font-size:23.58266068px" /></flowRegion><flowPara
     id="flowPara4567">On prend des notes!</flowPara></flowRoot></svg>