<?xml version="1.0" encoding="iso-8859-1"?>
<!-- Generator: Adobe Illustrator 19.0.0, SVG Export Plug-In . SVG Version: 6.00 Build 0)  -->
<svg version="1.1" id="Layer_1" xmlns="http://www.w3.org/2000/svg" xmlns:xlink="http://www.w3.org/1999/xlink" x="0px" y="0px"
	 viewBox="0 0 512 512" style="enable-background:new 0 0 512 512;" xml:space="preserve">
<g transform="translate(0 1)">
	<path style="fill:#FFE100;" d="M356.693,36.547c-15.36-13.653-34.133-20.48-52.907-20.48H256h-47.787
		c-19.627,0-38.4,6.827-53.76,20.48C124.587,63,85.333,122.733,85.333,255s39.253,192,69.973,218.453
		c15.36,13.653,34.133,20.48,53.76,20.48H256h47.787c19.627,0,38.4-6.827,53.76-20.48C387.413,447,426.667,387.267,426.667,255
		S387.413,63,356.693,36.547"/>
	<path style="fill:#FECC00;" d="M272.213,7.533H256h-54.613c-22.187,0-44.373,6.827-61.44,21.333
		C104.96,56.173,59.733,118.467,59.733,255s45.227,198.827,80.213,226.133c17.067,13.653,39.253,21.333,61.44,21.333H256h16.213
		C125.44,355.693,125.44,154.307,272.213,7.533"/>
	<path style="fill:#FFA800;" d="M372.053,28.013c-17.067-13.653-39.253-20.48-61.44-20.48H281.6v8.533h22.187
		c19.627,0,38.4,6.827,53.76,20.48C387.413,63,426.667,122.733,426.667,255s-39.253,192-69.973,218.453
		c-15.36,13.653-34.133,20.48-53.76,20.48H281.6v8.533h29.013c22.187,0,44.373-6.827,61.44-20.48
		c34.987-28.16,80.213-90.453,80.213-226.987S407.04,56.173,372.053,28.013"/>
	<path style="fill:#FFFFFF;" d="M208.213,493.933c-19.627,0-38.4-6.827-53.76-20.48C124.587,447,85.333,387.267,85.333,255
		s39.253-192,69.973-218.453c15.36-13.653,34.133-20.48,52.907-20.48h13.653V7.533h-20.48c-22.187,0-44.373,6.827-61.44,21.333
		C104.96,56.173,59.733,118.467,59.733,255s45.227,198.827,80.213,226.133c17.067,13.653,39.253,21.333,61.44,21.333h20.48v-8.533
		H208.213z"/>
	<path style="fill:#63D3FD;" d="M384,246.467c0,84.48-30.72,153.6-68.267,153.6s-68.267-69.12-68.267-153.6
		s30.72-153.6,68.267-153.6S384,161.987,384,246.467"/>
	<path d="M310.613,511H201.387c-24.747,0-47.787-7.68-66.56-23.04C96.427,458.093,51.2,393.24,51.2,255S96.427,51.907,134.827,22.04
		C153.6,6.68,176.64-1,201.387-1h109.227c24.747,0,47.787,7.68,66.56,23.04C415.573,51.907,460.8,116.76,460.8,255
		s-45.227,203.093-83.627,232.96C358.4,503.32,335.36,511,310.613,511z M201.387,16.067c-20.48,0-40.96,6.827-56.32,18.773
		C110.08,63,68.267,123.587,68.267,255s41.813,192,76.8,220.16c15.36,11.947,35.84,18.773,56.32,18.773h109.227
		c20.48,0,40.96-6.827,56.32-18.773c34.987-28.16,76.8-88.747,76.8-220.16s-41.813-192-76.8-220.16l0,0
		c-15.36-11.947-35.84-18.773-56.32-18.773H201.387z"/>
	<path d="M315.733,408.6c-42.667,0-76.8-70.827-76.8-162.133s34.133-162.133,76.8-162.133s76.8,70.827,76.8,162.133
		S358.4,408.6,315.733,408.6z M315.733,101.4C286.72,101.4,256,159.427,256,246.467s30.72,145.067,59.733,145.067
		c29.013,0,59.733-58.027,59.733-145.067S344.747,101.4,315.733,101.4z"/>
	<path d="M315.733,331.8c-2.56,0-5.12-0.853-6.827-3.413c-36.693-52.053-36.693-114.347,0-165.547
		c2.56-3.413,7.68-4.267,11.947-1.707c3.413,2.56,4.267,7.68,1.707,11.947c-32.427,45.227-32.427,98.987,0,145.067
		c2.56,4.267,1.707,9.387-1.707,11.947C319.147,330.947,317.44,331.8,315.733,331.8z"/>
	<path d="M292.693,511h-91.307c-24.747,0-47.787-7.68-66.56-23.04C96.427,458.093,51.2,393.24,51.2,255S96.427,51.907,134.827,22.04
		C153.6,6.68,176.64-1,201.387-1h91.307l-14.507,14.507c-144.213,144.213-144.213,338.773,0,482.987L292.693,511z M201.387,16.067
		c-20.48,0-40.96,6.827-56.32,18.773C110.08,63,68.267,123.587,68.267,255s41.813,192,76.8,220.16
		c15.36,11.947,35.84,18.773,56.32,18.773h51.2c-131.413-143.36-131.413-334.507,0-477.867H201.387z"/>
</g>
<g>
</g>
<g>
</g>
<g>
</g>
<g>
</g>
<g>
</g>
<g>
</g>
<g>
</g>
<g>
</g>
<g>
</g>
<g>
</g>
<g>
</g>
<g>
</g>
<g>
</g>
<g>
</g>
<g>
</g>
</svg>
